# xmcd CD database file
# Copyright (C) 1993-1996 Ti Kan
#
# Track frame offsets:
#	183
#	12248
#	27088
#	39160
#	53368
#	66543
#	83238
#	96525
#	114415
#	131310
#
# Disc length: 1919 seconds
#
# Revision: 1
# Processed by: cddbd v1.4b41PL1 Copyright (c) Steve Scherf et al.
# Submitted via: CDValet v3.01 - Copyright (c) 1997 Greg Leichner
#
DISCID=76077d0a
DTITLE=The Statler Brothers - Words And Music
DYEAR=1900
DGENRE=
TTITLE0=To Make A Long Story Short
TTITLE1=It Only Hurts For A Little While
TTITLE2=A Lifetime Of Loving You In Vain
TTITLE3=The Rest Of My Life
TTITLE4=Some I Wrote
TTITLE5=Nobody Loves Here Anymore
TTITLE6=Same Way Everytime
TTITLE7=Is It Your Place Or Mine
TTITLE8=He's Always There For You
TTITLE9=Thank You For Breaking My Heart
EXTD=
EXTT0=
EXTT1=
EXTT2=
EXTT3=
EXTT4=
EXTT5=
EXTT6=\n
EXTT7=
EXTT8=
EXTT9=
PLAYORDER=
